<svg width="51" height="21" viewBox="0 0 51 21" fill="none" xmlns="http://www.w3.org/2000/svg">
<path d="M0 0H42.9722L51 21H4.72222L0 0Z" fill="#D9D9D9"/>
<path d="M29.2744 5.25H40.4248C41.277 5.25 42.0062 5.86417 42.1504 6.7041L42.8096 10.542L43.3516 13.7041C43.535 14.7733 42.7118 15.75 41.627 15.75H30.1758C29.2958 15.75 28.5529 15.0964 28.4404 14.2236L27.5381 7.22363C27.4033 6.17704 28.2192 5.25 29.2744 5.25Z" fill="#C5BDBD" stroke="#898989" stroke-width="0.5"/>
<circle cx="31" cy="8" r="1" fill="#A0A0A0"/>
<circle cx="40" cy="13" r="1" fill="#A0A0A0"/>
<circle cx="39" cy="8" r="1" fill="#A0A0A0"/>
<circle cx="36" cy="13" r="1" fill="#A0A0A0"/>
<circle cx="32" cy="13" r="1" fill="#A0A0A0"/>
<circle cx="35" cy="8" r="1" fill="#A0A0A0"/>
<path d="M9.27441 5.25H20.4248C21.277 5.25 22.0062 5.86417 22.1504 6.7041L22.8096 10.542L23.3516 13.7041C23.535 14.7733 22.7118 15.75 21.627 15.75H10.1758C9.29575 15.75 8.55292 15.0964 8.44043 14.2236L7.53809 7.22363C7.4033 6.17704 8.21917 5.25 9.27441 5.25Z" fill="#C5BDBD" stroke="#898989" stroke-width="0.5"/>
<circle cx="11" cy="8" r="1" fill="#A0A0A0"/>
<circle cx="20" cy="13" r="1" fill="#A0A0A0"/>
<circle cx="19" cy="8" r="1" fill="#A0A0A0"/>
<circle cx="16" cy="13" r="1" fill="#A0A0A0"/>
<circle cx="12" cy="13" r="1" fill="#A0A0A0"/>
<circle cx="15" cy="8" r="1" fill="#A0A0A0"/>
</svg>
