<svg width="36" height="12" viewBox="0 0 36 12" fill="none" xmlns="http://www.w3.org/2000/svg">
<path d="M0.533895 1.3644C0.277265 0.708566 0.760882 0 1.46514 0H28.4165C28.7771 0 29.1097 0.194074 29.2871 0.507943L34.6567 10.0079C35.0335 10.6746 34.5518 11.5 33.7861 11.5H5.18253C4.77088 11.5 4.40129 11.2477 4.25129 10.8644L0.533895 1.3644Z" fill="#D9D9D9"/>
<path d="M20.7607 1.75H27.1543C28.0117 1.75 28.7433 2.37165 28.8818 3.21777L29.2539 5.49316L29.5215 7.12402C29.6955 8.18899 28.8731 9.15625 27.7939 9.15625H21.2402C20.3562 9.15625 19.6107 8.49658 19.5029 7.61914L19.0234 3.71289C18.8956 2.6698 19.7098 1.75 20.7607 1.75Z" fill="#C5BDBD" stroke="#898989" stroke-width="0.5"/>
<ellipse cx="21.2407" cy="3.65625" rx="0.685185" ry="0.71875" fill="#A0A0A0"/>
<ellipse cx="27.4074" cy="7.25" rx="0.685185" ry="0.71875" fill="#A0A0A0"/>
<ellipse cx="26.7222" cy="3.65625" rx="0.685185" ry="0.71875" fill="#A0A0A0"/>
<ellipse cx="24.6667" cy="7.25" rx="0.685185" ry="0.71875" fill="#A0A0A0"/>
<ellipse cx="21.9259" cy="7.25" rx="0.685185" ry="0.71875" fill="#A0A0A0"/>
<ellipse cx="23.9815" cy="3.65625" rx="0.685185" ry="0.71875" fill="#A0A0A0"/>
<path d="M6.76074 1.75H13.1543C14.0117 1.75 14.7433 2.37165 14.8818 3.21777L15.2539 5.49316L15.5215 7.12402C15.6955 8.18899 14.8731 9.15625 13.7939 9.15625H7.24023C6.35621 9.15625 5.61066 8.49658 5.50293 7.61914L5.02344 3.71289C4.8956 2.6698 5.70979 1.75 6.76074 1.75Z" fill="#C5BDBD" stroke="#898989" stroke-width="0.5"/>
<ellipse cx="7.24073" cy="3.65625" rx="0.685185" ry="0.71875" fill="#A0A0A0"/>
<ellipse cx="13.4074" cy="7.25" rx="0.685185" ry="0.71875" fill="#A0A0A0"/>
<ellipse cx="12.7222" cy="3.65625" rx="0.685185" ry="0.71875" fill="#A0A0A0"/>
<ellipse cx="10.6667" cy="7.25" rx="0.685185" ry="0.71875" fill="#A0A0A0"/>
<ellipse cx="7.92591" cy="7.25" rx="0.685185" ry="0.71875" fill="#A0A0A0"/>
<ellipse cx="9.98148" cy="3.65625" rx="0.685185" ry="0.71875" fill="#A0A0A0"/>
</svg>
